<svg class="svg-icon" style="width: 1em; height: 1em;vertical-align: middle;fill: currentColor;overflow: hidden;" viewBox="0 0 1024 1024" version="1.1" xmlns="http://www.w3.org/2000/svg"><path d="M500 316c-133.2 0-241.2 108-241.2 241.2s108 241.2 241.2 241.2 241.2-108 241.2-241.2S633.2 316 500 316z m149.6 290.4v72.8h-72.4l-6-6-5.6-5.6c-26.4-24.8-60.4-40.4-96-45.2l8 90h-63.6l-25.2-91.6h-13.2c-7.2 0-14-1.6-20-4.8-15.2-7.2-25.6-22.8-25.6-40.8v-48.8c0-18 10.4-33.6 25.6-40.8 6-2.8 12.8-4.8 20-4.8h72c43.6 0 86-16.8 118-46.4 2-1.6 4-3.6 5.6-5.6l6-6h72.4v87.6c18.4 8 31.6 26.4 31.6 47.6 0 22-13.2 40.4-31.6 48.4z" fill="#E0E0E0" /><path d="M619.6 225.6H364.4V22.4h254.8v203.2z m-243.2-11.6h230.8V34.4H376.4v179.6z" fill="#4A555F" /><path d="M389.6 47.2v153.6h204.8V47.2H389.6zM519.2 168l-76-44 76-44v88z" fill="#F68F6F" /><path d="M524.8 178.4L431.2 124l94-54.4v108.8zM455.2 124l58 33.6V90.4L455.2 124zM232 822.8H0v-175.2h232v175.2z m-220-12h208v-151.2H12v151.2z" fill="#4A555F" /><path d="M10 781.2l-8.4-8.8 80.8-79.2L160 771.2l-8.4 8.4-69.2-69.6z" fill="#4A555F" /><path d="M142 761.2l-8.8-8.4 49.2-49.2L230.8 752l-8.4 8.8-40-40.4z" fill="#4A555F" /><path d="M208.4 800.8v-38.4l-26-25.6-20 20 5.6 6-24.4 24.8-61.2-61.2-60.4 59.2v15.2z" fill="#71CDE1" /><path d="M137.6 718c-13.2 0-23.6-10.8-23.6-23.6s10.8-23.6 23.6-23.6c13.2 0 23.6 10.8 23.6 23.6s-10.4 23.6-23.6 23.6z m0-35.2c-6.4 0-11.6 5.2-11.6 11.6 0 6.4 5.2 11.6 11.6 11.6 6.4 0 11.6-5.2 11.6-11.6 0-6.4-5.2-11.6-11.6-11.6z" fill="#4A555F" /><path d="M232.8 860.8H0v-213.2h232.8v213.2z m-220.8-12h208.8v-189.2H12v189.2z" fill="#4A555F" /><path d="M889.2 862c-60.4 0-109.6-49.2-109.6-109.6s49.2-109.6 109.6-109.6c60.4 0 109.6 49.2 109.6 109.6s-48.8 109.6-109.6 109.6z" fill="#FFD552" /><path d="M861.6 833.6c-13.2 0-22-7.2-22-18.4 0-13.6 14.4-28.8 33.2-35.2 5.2-1.6 10-2.8 14.8-2.8 13.2 0 22 7.2 22 18.4 0 13.6-14.4 28.8-32.8 35.2-5.6 2-10.4 2.8-15.2 2.8z m26-44c-3.2 0-7.2 0.8-10.8 2-14.8 5.2-24.8 16.8-24.8 24 0 5.6 7.2 6.4 10 6.4 3.2 0 7.2-0.8 10.8-2 14.8-5.2 24.8-16.8 24.8-24 0-6-7.2-6.4-10-6.4z" fill="#4A555F" /><path d="M909.6 799.6h-12V672h12c0 11.6 2.8 25.6 10.4 30.4 2 1.2 4.4 2.4 7.2 3.6 2 0.8 4 1.6 6.4 2.8 14.4 7.2 23.6 22 24 37.2l-12 0.4c-0.4-10.8-7.2-21.6-17.6-26.8-1.6-0.8-3.6-1.6-5.6-2.4-2.8-1.2-6-2.4-8.8-4.4-1.6-0.8-2.8-2-4-3.2v90z" fill="#4A555F" /><path d="M889.2 887.2c-74.4 0-134.8-60.4-134.8-134.8s60.4-134.8 134.8-134.8 134.8 60.4 134.8 134.8-60.4 134.8-134.8 134.8z m0-257.6c-67.6 0-122.8 55.2-122.8 122.8s55.2 122.8 122.8 122.8S1012 820 1012 752.4s-55.2-122.8-122.8-122.8z" fill="#4A555F" /><path d="M946.4 593.2l-12-1.2c0.4-4 0.8-8 0.8-11.6l12 0.8c0 4-0.4 8-0.8 12z m1.6-24.4l-12-0.4c0-4 0.4-8 0.4-12h12c0 4.4-0.4 8.4-0.4 12.4z m-12-24c0-4-0.4-8-0.4-12l12-0.4c0 4 0.4 8 0.4 12l-12 0.4z m-0.8-23.6c-0.4-4-0.8-8-1.2-11.6l12-1.2 1.2 12-12 0.8z m-2.4-23.6c-0.4-4-1.2-8-1.6-11.6l12-2c0.8 4 1.2 8 1.6 12l-12 1.6z m-3.6-23.2c-0.8-4-1.6-7.6-2.4-11.6l11.6-2.4 2.4 12-11.6 2z m-5.2-23.2c-0.8-4-2-7.6-2.8-11.6l11.6-3.2c1.2 4 2 8 3.2 11.6l-12 3.2z m-6-22.8c-1.2-3.6-2.4-7.6-3.6-11.2l11.2-3.6c1.2 4 2.4 7.6 3.6 11.6l-11.2 3.2z m-7.6-22.4c-1.2-3.6-2.8-7.2-4-11.2l11.2-4.4c1.6 3.6 2.8 7.6 4.4 11.2l-11.6 4.4z m-8.4-22l-4.8-10.8 10.8-4.8c1.6 3.6 3.2 7.2 4.8 11.2l-10.8 4.4z m-9.6-21.2c-1.6-3.6-3.6-7.2-5.2-10.4l10.8-5.6c2 3.6 3.6 7.2 5.6 10.8l-11.2 5.2z m-11.2-21.2c-2-3.6-4-6.8-6-10.4l10.4-6c2 3.6 4 6.8 6 10.4l-10.4 6z m-12-20c-2-3.2-4.4-6.8-6.4-10l10-6.8c2.4 3.2 4.4 6.8 6.8 10l-10.4 6.8z m-13.2-19.6c-2.4-3.2-4.8-6.4-6.8-9.6l9.6-7.2 7.2 9.6-10 7.2z m-14-19.2c-2.4-3.2-4.8-6-7.6-9.2l9.2-7.6c2.8 3.2 5.2 6.4 7.6 9.6l-9.2 7.2z m-15.2-18c-2.8-2.8-5.2-6-8-8.8l8.8-8c2.8 2.8 5.6 6 8 8.8l-8.8 8z m-16.4-17.2l-8.4-8.4 8.4-8.8c2.8 2.8 6 5.6 8.8 8.4l-8.8 8.8z m-16.8-16.4c-2.8-2.8-6-5.2-8.8-8l8-9.2c3.2 2.8 6 5.2 9.2 8l-8.4 9.2z m-18-15.6c-3.2-2.4-6-4.8-9.2-7.2l7.2-9.6c3.2 2.4 6.4 4.8 9.6 7.6l-7.6 9.2z m-18.8-14.4c-3.2-2.4-6.4-4.8-9.6-6.8l6.8-10c3.2 2.4 6.8 4.8 10 7.2l-7.2 9.6z m-19.6-13.2c-3.2-2-6.8-4.4-10-6.4l6.4-10.4c3.6 2 6.8 4.4 10.4 6.4l-6.8 10.4z m-20-12.4c-3.6-2-6.8-4-10.4-5.6l5.6-10.4 10.8 6-6 10z m-20.8-11.2c-3.6-1.6-7.2-3.6-10.8-5.2l5.2-10.8c3.6 1.6 7.2 3.6 10.8 5.2l-5.2 10.8z m-21.6-10c-3.6-1.6-7.2-3.2-10.8-4.4l4.4-11.2c3.6 1.6 7.6 3.2 11.2 4.8l-4.8 10.8z m-22-9.2c-3.6-1.2-7.6-2.8-11.2-4l4-11.2c4 1.2 7.6 2.8 11.6 4l-4.4 11.2z" fill="#4A555F" /><path d="M55.6 607.2l-1.2-12 12-1.2c0.4 4 0.8 8 1.2 11.6l-12 1.6z m-2.4-24c-0.4-4-0.4-8-0.8-12l12-0.4c0 4 0.4 8 0.8 12l-12 0.4z m-0.8-24.4v-4.8-7.2h12v12h-12z m12.4-24l-12-0.4c0-4 0.4-8 0.8-12l12 0.8c-0.4 4-0.8 8-0.8 11.6z m1.6-23.6l-12-1.2 1.2-12 12 1.6c-0.4 4-0.8 8-1.2 11.6z m2.8-23.2l-12-1.6c0.8-4 1.2-8 2-12l11.6 2c-0.4 3.6-0.8 7.6-1.6 11.6z m4.4-23.2l-11.6-2.4c0.8-4 1.6-8 2.8-12l11.6 2.8c-1.2 3.6-2 7.6-2.8 11.6z m5.2-23.2l-11.6-3.2c1.2-4 2-8 3.2-11.6l11.6 3.6c-0.8 3.6-2 7.2-3.2 11.2z m6.8-22.8l-11.2-3.6c1.2-4 2.4-7.6 4-11.6l11.2 4c-1.6 3.6-2.8 7.6-4 11.2z m8-22.4L82.4 392c1.6-3.6 2.8-7.6 4.4-11.2l11.2 4.8c-1.6 3.6-2.8 7.2-4.4 10.8z m9.2-21.6L92 369.6c1.6-3.6 3.2-7.2 5.2-11.2L108 364c-2 3.6-3.6 7.2-5.2 10.8z m10.4-21.6L102.4 348c2-3.6 3.6-7.2 5.6-10.8l10.4 6c-1.6 3.2-3.6 6.8-5.2 10z m11.2-20.4l-10.4-6c2-3.6 4-6.8 6.4-10.4l10 6.4c-1.6 3.2-4 6.4-6 10z m12.8-20l-10-6.8c2.4-3.2 4.4-6.8 6.8-10l9.6 6.8c-2 3.2-4.4 6.4-6.4 10z m13.6-19.6l-9.6-7.2c2.4-3.2 4.8-6.4 7.6-9.6l9.6 7.6c-2.8 3.2-5.2 6-7.6 9.2z m14.8-18.4l-9.2-7.6c2.4-3.2 5.2-6 8-9.2l8.8 8c-2.8 2.8-5.2 5.6-7.6 8.8z m15.6-17.6l-8.8-8c2.8-2.8 5.6-6 8.4-8.8l8.4 8.4c-2.8 2.4-5.6 5.2-8 8.4z m16.4-17.2l-8.4-8.8c2.8-2.8 6-5.6 8.8-8.4l8 8.8c-2.8 3.2-5.6 6-8.4 8.4z m17.6-16l-8-9.2c3.2-2.8 6-5.2 9.2-8L224 216c-2.8 3.2-6 5.6-8.8 8z m18-14.8l-7.2-9.6 9.6-7.2 7.2 9.6-9.6 7.2z m19.2-14l-6.8-10c3.2-2.4 6.8-4.4 10-6.8l6.4 10c-3.2 2.4-6.4 4.4-9.6 6.8z m19.6-12.8L266 172c3.6-2 6.8-4 10.4-6.4l6 10.4c-3.6 2.4-6.8 4.4-10.4 6.4z m20.4-12L286.8 160c3.6-2 7.2-4 10.8-5.6l5.6 10.8c-3.6 1.6-7.2 3.6-10.8 5.2z m21.2-10.8l-5.2-10.8c3.6-1.6 7.2-3.6 11.2-5.2l4.8 10.8c-3.6 2-7.2 3.6-10.8 5.2z m21.6-9.2l-4.4-11.2 2-0.8 9.6-3.2 3.6 11.6-10.8 3.6z" fill="#4A555F" /><path d="M500.4 1001.6h-5.2v-12H506.8v12h-6.4z m-17.6 0c-4 0-8-0.4-12-0.8l0.8-12c4 0.4 8 0.4 12 0.8l-0.8 12z m36.4-0.4l-0.4-12c4 0 8-0.4 11.6-0.8l0.8 12c-3.6 0.4-7.6 0.8-12 0.8z m-60.4-1.2l-12-1.2 1.6-12c4 0.4 8 0.8 11.6 1.2l-1.2 12z m84.8-0.4l-1.2-12c4-0.4 8-0.8 11.6-1.2l1.6 12-12 1.2z m-109.2-2.8c-4-0.4-8-1.2-12-2l2-12c4 0.8 7.6 1.2 11.6 2l-1.6 12z m133.2 0l-1.6-12c4-0.4 7.6-1.2 11.6-2l2 11.6c-4 1.2-8 1.6-12 2.4z m-157.2-4l-12-2.4 2.8-11.6c4 0.8 7.6 1.6 11.6 2.4l-2.4 11.6z m181.2-0.4l-2.4-11.6c4-0.8 7.6-1.6 11.6-2.4l2.8 11.6-12 2.4z m-204.8-5.2c-4-1.2-8-2-11.6-3.2l3.2-11.6c3.6 1.2 7.6 2 11.6 3.2l-3.2 11.6z m228.4-0.4l-3.2-11.6c4-1.2 7.6-2 11.2-3.2l3.2 11.6c-3.6 1.2-7.2 2.4-11.2 3.2z m-251.6-6.4c-4-1.2-7.6-2.4-11.6-4l4-11.2c3.6 1.2 7.6 2.4 11.2 3.6l-3.6 11.6z m274.8-0.4l-3.6-11.6c3.6-1.2 7.6-2.4 11.2-3.6l4 11.2c-4 1.6-7.6 2.8-11.6 4z m-298-7.6c-3.6-1.6-7.6-2.8-11.2-4.4l4.4-11.2c3.6 1.6 7.2 2.8 10.8 4.4l-4 11.2z m320.8-0.4l-4.4-11.2c3.6-1.6 7.2-2.8 10.8-4.4l4.8 11.2c-3.6 1.2-7.2 2.8-11.2 4.4z m-343.2-8.8c-3.6-1.6-7.2-3.2-11.2-5.2l5.2-10.8 10.8 4.8-4.8 11.2z m365.6-0.4l-4.8-10.8 10.8-4.8 5.2 10.8c-3.6 1.2-7.6 2.8-11.2 4.8z m-387.2-10c-3.6-2-7.2-3.6-10.8-5.6l5.6-10.4c3.6 2 6.8 3.6 10.4 5.6l-5.2 10.4z m409.2-0.8l-5.6-10.8c3.6-2 6.8-3.6 10.4-5.6l5.6 10.4c-3.2 2.4-6.8 4.4-10.4 6z m-430.8-11.2c-3.6-2-6.8-4-10.4-6.4l6.4-10c3.2 2 6.8 4 10 6l-6 10.4z m452-0.4l-6-10.4c3.2-2 6.8-4 10-6l6.4 10c-3.6 2.4-6.8 4.4-10.4 6.4zM254.4 928c-3.2-2.4-6.8-4.4-10-6.8l6.8-10c3.2 2.4 6.4 4.4 9.6 6.8l-6.4 10z m493.2-0.4l-6.8-10c3.2-2 6.4-4.4 9.6-6.8l6.8 10c-3.2 2-6.4 4.4-9.6 6.8z m-513.2-13.2l-9.6-7.2 7.2-9.6 9.6 7.2-7.2 9.6z m532.8-0.8L760 904c3.2-2.4 6.4-4.8 9.2-7.2l7.6 9.6-9.6 7.2z m19.2-15.2l-7.6-9.2c3.2-2.4 6-5.2 8.8-7.6l8 9.2c-3.2 2.4-6 5.2-9.2 7.6z" fill="#4A555F" /><path d="M585.2 443.2h44v215.6h-44zM404 600.8l24.8 91.6h26.8l-8.4-91.6z" fill="#F68F6F" /><path d="M623.6 652.8h-32v-203.6h32v203.6z m-40.8-215.6l-3.6 3.6v220.4l3.6 3.6h52.8v-227.6h-52.8z" fill="#4A555F" /><path d="M579.2 644.8c-36-32-83.6-50-131.6-50H381.6v-87.6h66c48.4 0 95.6-18 131.6-50v187.6z m3.6-207.6l-3.6 3.6c-34.8 34.4-82.8 54.4-131.6 54.4h-72l-6 6v99.6l6 6h72c48.4 0 97.2 20.8 131.6 54.4l3.6 3.6 8.4-6v-215.6l-8.4-6z" fill="#4A555F" /><path d="M381.6 606.8h-6c-17.2 0-31.6-14-31.6-31.6v-48.8c0-17.2 14-31.6 31.6-31.6h6v112z m-12-98.8c-8 2.4-13.6 10-13.6 18.4v48.8c0 8.8 5.6 16 13.6 18.4V508zM462 698.4h-37.6L396 594.8h56.8l9.2 103.6z m-28.4-12h15.6l-7.2-79.6H412l21.6 79.6zM629.6 596.4h-6v-75.2h6c20.8 0 37.6 16.8 37.6 37.6 0 20.4-16.8 37.6-37.6 37.6z m6-62.8v50c11.2-2.8 19.6-12.8 19.6-24.8s-8.4-22.4-19.6-25.2z" fill="#4A555F" /></svg>